<?xml version="1.0" encoding="UTF-8"?>
<svg id="_图层_1" data-name="图层 1" xmlns="http://www.w3.org/2000/svg" viewBox="0 0 165.3 102.7">
  <g>
    <path d="m146.48.51c-14.31-2.39-29.7,18.36-34.37,46.33-3.3,19.81-.34,37.93,6.75,47.67,1.17.52,2.38.99,3.66,1.37,1.55.47,3.11.82,4.68,1.08s3.02.38,4.35.38c4.59,0,8.01-.81,10.28-2.43,2.26-1.62,3.4-3.95,3.4-7,0-1.63-.38-3.06-1.13-4.27-.75-1.21-1.8-2.32-3.13-3.32s-2.91-1.96-4.73-2.87c-1.82-.92-3.78-1.88-5.88-2.9-2.22-1.07-4.29-2.16-6.21-3.25-1.92-1.1-3.6-2.31-5.02-3.64s-2.54-2.82-3.35-4.5-1.22-3.64-1.22-5.9c0-2.76.64-5.16,1.91-7.21,1.27-2.04,2.94-3.73,5.02-5.05,2.07-1.32,4.43-2.31,7.08-2.96s5.35-.97,8.1-.97c6.27,0,10.84.72,13.71,2.16v7.99c-3.76-2.48-8.58-3.72-14.47-3.72-1.63,0-3.25.16-4.88.49-1.63.32-3.08.85-4.35,1.58-1.27.73-2.31,1.68-3.11,2.83-.8,1.16-1.2,2.56-1.2,4.23,0,1.55.3,2.89.91,4.01.61,1.13,1.5,2.16,2.69,3.09,1.18.93,2.62,1.83,4.33,2.71,1.7.87,3.66,1.83,5.88,2.87,2.28,1.07,4.44,2.2,6.48,3.38,2.04,1.18,3.83,2.49,5.37,3.93,1.54,1.44,2.76,3.03,3.66,4.78.73,1.42,1.15,3.02,1.29,4.78,5-8.08,8.97-18.72,10.97-30.7,4.67-27.97-3.16-52.59-17.47-54.97Z"/>
    <path d="m148.03,76.63c-1.54-1.44-3.33-2.75-5.37-3.93-2.04-1.18-4.2-2.31-6.48-3.38-2.22-1.04-4.18-2-5.88-2.87-1.7-.87-3.15-1.78-4.33-2.71-1.18-.93-2.08-1.96-2.69-3.09-.61-1.13-.91-2.46-.91-4.01,0-1.66.4-3.07,1.2-4.23.8-1.16,1.83-2.1,3.11-2.83,1.27-.73,2.72-1.26,4.35-1.58,1.63-.32,3.26-.49,4.88-.49,5.89,0,10.71,1.24,14.47,3.72v-7.99c-2.87-1.44-7.44-2.16-13.71-2.16-2.75,0-5.45.32-8.1.97s-5.01,1.63-7.08,2.96c-2.07,1.33-3.74,3.01-5.02,5.05-1.27,2.04-1.91,4.45-1.91,7.21,0,2.25.41,4.22,1.22,5.9s1.93,3.18,3.35,4.5,3.09,2.54,5.02,3.64c1.92,1.1,3.99,2.18,6.21,3.25,2.1,1.01,4.06,1.98,5.88,2.9,1.82.92,3.39,1.87,4.73,2.87s2.38,2.11,3.13,3.32c.76,1.21,1.13,2.63,1.13,4.27,0,3.04-1.13,5.38-3.4,7-2.26,1.62-5.69,2.43-10.28,2.43-1.33,0-2.78-.13-4.35-.38s-3.13-.61-4.68-1.08c-1.27-.38-2.48-.85-3.66-1.37,2.92,4.01,6.54,6.61,10.72,7.31,8.18,1.36,16.72-4.84,23.4-15.63-.14-1.76-.56-3.36-1.29-4.78-.9-1.75-2.12-3.34-3.66-4.78Z" style="fill: #fff;"/>
  </g>
  <g>
    <path d="m16.58,40.83v31.96h.18c.42-.69,1-1.47,1.73-2.32l24.39-29.64h9.51l-27.98,32.63,24.65,29.13L57.93,0H8.89S0,102.7,0,102.7h8.93v-61.87h7.64Z"/>
    <path d="m16.76,75.36h-.18v27.35h22.14l-20.23-24.98c-.94-1.17-1.52-1.96-1.73-2.37Z"/>
    <path d="m49.05,102.59l-24.65-29.13,27.98-32.63h-9.51l-24.39,29.64c-.73.85-1.3,1.63-1.73,2.32h-.18v-31.96h-7.64v61.87h7.64v-27.35h.18c.21.41.79,1.2,1.73,2.37l20.23,24.98h10.32v-.12Z" style="fill: #fff;"/>
  </g>
  <g>
    <polygon points="115.85 0 66.81 0 57.93 102.7 69.25 102.7 69.25 40.85 76.84 40.85 76.84 97.31 102.86 97.31 102.86 102.7 106.96 102.7 115.85 0"/>
    <polygon points="76.84 97.31 76.84 40.85 69.25 40.85 69.25 102.7 102.86 102.7 102.86 97.31 76.84 97.31" style="fill: #fff;"/>
  </g>
</svg>